<svg id="Layer_1" xmlns="http://www.w3.org/2000/svg" version="1.1" viewBox="3.57 2.7 25.75 27.63">
  <!-- Generator: Adobe Illustrator 29.2.1, SVG Export Plug-In . SVG Version: 2.1.0 Build 116)  -->
  <defs>
    <style>
      .st0 {
        fill: #7C6F64;
      }
    </style>
  </defs>
  <path class="st0" d="M16.4,16.7c-3.9,0-7-3.1-7-7s3.1-7,7-7,7,3.1,7,7-3.1,7-7,7M16.4,4.8c-2.8,0-5,2.2-5,5s2.2,5,5,5,5-2.2,5-5-2.2-5-5-5M22,17.9c-5.4-1.2-11.1-.6-16.1,1.7-1.4.7-2.3,2.1-2.3,3.7v6c0,.6.4,1,1,1s1-.4,1-1v-6c0-.8.4-1.5,1.2-1.9,3-1.4,6.4-2.1,9.7-2.1,1.9,0,3.7.2,5.6.7v-2ZM10.8,19.9c1.8-.4,3.7-.7,5.6-.7,3.3,0,6.7.7,9.7,2.1.7.3,1.2,1.1,1.2,1.9v6c0,.6.4,1,1,1s1-.4,1-1v-6c0-1.6-.9-3-2.3-3.7-5-2.3-10.7-2.9-16.1-1.7v2Z"/>
</svg>