<?xml version="1.0" encoding="UTF-8"?>
<svg id="Layer_1" xmlns="http://www.w3.org/2000/svg" version="1.1" viewBox="0 0 396.6 73.1">
  <!-- Generator: Adobe Illustrator 29.2.1, SVG Export Plug-In . SVG Version: 2.1.0 Build 116)  -->
  <defs>
    <style>
      .st0 {
        fill: none;
        stroke: #000;
        stroke-miterlimit: 10;
      }

      .st1 {
        fill: #fff;
      }

      .st2 {
        fill: #d53e3e;
      }

      .st3 {
        fill: #2c2c2e;
      }
    </style>
  </defs>
  <g>
    <path class="st3" d="M107.9,62.3h-.8c-1.6,3.5-5.9,5.9-10.8,5.9-8.6,0-14.2-7.4-13.1-17.5,1.1-10.7,8.9-18.5,20.2-18.5s13,4,13.9,11.2l-7.6,1.7c-.6-4.1-3.1-6.1-7.4-6.1-6.7,0-10.9,4.7-11.6,11.5-.8,6.8,2.6,11.2,8.8,11.2s8.7-2.3,9.2-7.5v-.2c0,0-13.8,0-13.8,0l.6-6h21.1l-2.1,19.7h-7.3l.6-5.4h0Z"/>
    <path class="st3" d="M136,42.2c8.1,0,13.2,5.6,12.4,13s-7,13-15.1,13-13.2-5.6-12.4-13,7-13,15.1-13ZM134,62.1c4.1,0,6.9-2.9,7.4-6.9.4-4.1-1.9-6.9-5.9-6.9s-6.9,2.9-7.4,6.9c-.4,4,1.9,6.9,5.9,6.9Z"/>
    <path class="st3" d="M166.6,42.2c8.1,0,13.2,5.6,12.4,13-.8,7.4-7,13-15.1,13s-13.2-5.6-12.4-13,7-13,15.1-13ZM164.5,62.1c4,0,7-2.9,7.4-6.9.5-4.1-1.9-6.9-5.9-6.9s-7,2.9-7.4,6.9,1.9,6.9,5.9,6.9Z"/>
    <path class="st3" d="M191.7,42.7l-.4,4h.6c2.4-3,5.6-4.5,9.5-4.5,6,0,9.1,3.8,8.5,10.3l-1.6,15.2h-7l1.5-14c.4-3.5-1.5-5.4-5.2-5.4s-6.6,2.2-7,5.8l-1.4,13.7h-7l2.6-25h7,0Z"/>
    <path class="st2" d="M221.8,67.7h-7.2l3.6-35h17.7c7.5,0,11.7,4.2,11,10.8-.5,5-4,8.6-9.6,9.8v.8c-.1,0,9.2,13.5,9.2,13.5h-9.1l-9-13.2h-5.1l-1.4,13.2h0ZM223.9,48.2h9.7c3.5,0,5.5-1.7,5.9-4.6.4-3-1.5-4.6-5-4.6h-9.6l-1,9.3h0Z"/>
    <path class="st2" d="M269,67.7l.4-4h-.7c-2.4,3-5.6,4.5-9.5,4.5-6.1,0-9.1-3.8-8.5-10.3l1.6-15.2h7l-1.5,14c-.4,3.5,1.5,5.4,5.2,5.4s6.6-2.2,7-5.8l1.4-13.7h7l-2.6,25h-7,0Z"/>
    <path class="st2" d="M291.6,42.7l-.4,4h.6c2.4-3,5.6-4.5,9.5-4.5,6,0,9.1,3.8,8.5,10.3l-1.6,15.2h-7l1.5-14c.4-3.5-1.5-5.4-5.2-5.4s-6.6,2.2-7,5.8l-1.4,13.7h-7l2.6-25h7,0Z"/>
    <path class="st2" d="M323.6,42.7l-.4,4h.6c2.4-3,5.6-4.5,9.5-4.5,6,0,9.1,3.8,8.5,10.3l-1.6,15.2h-7l1.5-14c.4-3.5-1.5-5.4-5.2-5.4s-6.6,2.2-7,5.8l-1.4,13.7h-7l2.6-25h7,0Z"/>
    <path class="st2" d="M360,62.2c2.2,0,4.5-.6,6.5-2l3,4.7c-2.5,2.2-6.6,3.4-10.9,3.4-8.5,0-13.7-5.1-12.9-13,.8-7.8,6.9-13.1,15.1-13.1s11.2,4.1,10.5,11l-.4,4h-18.3c.6,3,3.4,5,7.3,5h0ZM360.1,47.9c-3.2,0-5.8,1.7-6.8,4.5h11.9c.2-2.7-1.9-4.5-5.1-4.5Z"/>
    <path class="st2" d="M383.6,42.7l-.5,4.5h.6c1.1-3.1,3.5-4.5,8-4.5h4.8l-1,9.6h-6.8l.4-3.5h-1.2c-3.2,0-5.1,1.8-5.5,4.8l-1.5,14.2h-7l2.6-25h7Z"/>
  </g>
  <g>
    <g>
      <polygon class="st2" points="20 31.2 7.5 60.8 37.8 73.1 43.1 73.1 73.5 60.8 62.4 31.2 20 31.2"/>
      <path d="M81,29.5c0,8.3-26.2,15.9-40.5,15.9S0,37.8,0,29.5s7.7-9.8,18.3-12.5c.4-5.3,1-12.2,1-12.2C25.7,1.8,32.3,0,41.2,0s14.3,1.5,20.4,4.2l1,12.9c10.6,2.7,18.3,7.3,18.3,12.5h0Z"/>
      <path class="st3" d="M63,22.3v10.3c0,1.3-.9,2.5-2.3,2.7l-12.4,2.1c-5.2.9-10.6.9-15.9,0l-12.4-2.1c-1.3-.2-2.3-1.4-2.3-2.7v-9.6s0-.5,0-1.4c6.4-1.6,14.2-2.5,22.5-2.5s16.1.9,22.5,2.5v.6q0,0,0,0Z"/>
    </g>
    <g>
      <path class="st1" d="M37.3,51.9s-5.3,2.6-11.2,1.7c-5.9-.9-10.2-4.9-10.2-4.9,0,0,5.3-2.6,11.2-1.7s10.2,4.9,10.2,4.9Z"/>
      <path class="st1" d="M42.6,51.9s5.5,2.6,11.8,1.6c6.2-.9,10.8-5,10.8-5,0,0-5.5-2.6-11.8-1.6s-10.8,5-10.8,5Z"/>
    </g>
  </g>
  <g>
    <g>
      <ellipse cx="28.4" cy="53.3" rx="7.9" ry="3.6"/>
      <ellipse cx="52.5" cy="53.3" rx="7.9" ry="3.6"/>
      <line class="st0" x1="29.6" y1="53.3" x2="45.1" y2="53.3"/>
    </g>
    <path class="st0" d="M14.8,39.8l5.4,12.9c.2.4.6.7,1.1.7h3.4"/>
    <path class="st0" d="M66.2,39.8l-5.4,12.9c-.2.4-.6.7-1.1.7h-3.4"/>
  </g>
</svg>