<?xml version="1.0" encoding="UTF-8"?>
<svg id="Layer_1" xmlns="http://www.w3.org/2000/svg" version="1.1" viewBox="0 0 398.46 73.4">
  <!-- Generator: Adobe Illustrator 29.2.1, SVG Export Plug-In . SVG Version: 2.1.0 Build 116)  -->
  <defs>
    <style>
      .st0 {
        fill: none;
        stroke: #000;
        stroke-miterlimit: 10;
      }

      .st1 {
        fill: #231f20;
      }

      .st2 {
        fill: #d53e3e;
      }

      .st3 {
        font-family: AtemicaSansPERSONALUSE-Italic, 'Atemica Sans PERSONAL USE';
        font-size: 50px;
        font-style: italic;
      }

      .st4 {
        fill: #fff;
      }

      .st5 {
        fill: #2c2c2e;
      }
    </style>
  </defs>
  <text class="st3" transform="translate(80.94 67.66)"><tspan class="st5" x="0" y="0">Goon</tspan><tspan class="st2" x="131.45" y="0">R</tspan><tspan class="st2" x="167.4" y="0">unner</tspan></text>
  <g>
    <g>
      <polygon class="st2" points="20 31.14 7.48 60.74 37.81 73.09 43.13 73.09 73.46 60.74 62.38 31.14 20 31.14"/>
      <path d="M80.94,29.46c0,8.34-26.23,15.93-40.47,15.93C27.62,45.39,0,37.8,0,29.46c0-5.24,7.82-9.86,18.67-12.56-.07.88-.11,1.41-.1,1.41l-.67,9.58c0,1.32.95,2.46,2.26,2.69l12.37,2.15c5.25.92,10.62.92,15.87,0l12.38-2.15c1.31-.23,2.26-1.36,2.26-2.69l-.76-10.33-.05-.65c10.83,2.71,18.71,7.32,18.71,12.55Z"/>
      <path class="st5" d="M63.01,22.26v10.33c0,1.32-.95,2.46-2.26,2.69l-12.38,2.15c-5.25.92-10.61.92-15.87,0l-12.37-2.15c-1.31-.23-2.26-1.36-2.26-2.69v-9.58s.04-.53.1-1.41c6.43-1.6,14.15-2.54,22.47-2.54s16.08.94,22.52,2.55l.05.65Z"/>
      <path d="M62.96,21.61c-6.44-1.61-14.18-2.55-22.52-2.55s-16.04.93-22.47,2.54c.33-4.28,1.33-16.84,1.33-16.84C25.64,1.73,32.3,0,41.19,0c8.21,0,14.29,1.55,20.39,4.17l1.38,17.44Z"/>
    </g>
    <g>
      <path class="st4" d="M37.28,51.88s-5.31,2.6-11.24,1.71c-5.93-.89-10.24-4.94-10.24-4.94,0,0,5.31-2.6,11.24-1.71s10.24,4.94,10.24,4.94Z"/>
      <path class="st4" d="M42.61,51.88s5.54,2.57,11.76,1.63c6.22-.93,10.76-5.02,10.76-5.02,0,0-5.54-2.57-11.76-1.63s-10.76,5.02-10.76,5.02Z"/>
    </g>
  </g>
  <g>
    <g>
      <ellipse class="st1" cx="28.45" cy="53.33" rx="7.93" ry="3.6"/>
      <ellipse class="st1" cx="52.48" cy="53.33" rx="7.93" ry="3.6"/>
      <line class="st0" x1="29.61" y1="53.33" x2="45.13" y2="53.33"/>
    </g>
    <path class="st0" d="M14.76,39.78l5.43,12.87c.2.41.62.68,1.09.68h3.37"/>
    <path class="st0" d="M66.18,39.78l-5.43,12.87c-.2.41-.62.68-1.09.68h-3.37"/>
  </g>
</svg>